Coordinates
version=1
nRows=9
nColumns=63
inDegrees=yes

Units are S.I. units (second, meters, Newtons, ...)
If the header above contains a line with 'inDegrees', this indicates whether rotational values are in degrees (yes) or radians (no).

endheader
time	pelvis_tilt	pelvis_list	pelvis_rotation	pelvis_tx	pelvis_ty	pelvis_tz	hip_flexion_r	hip_adduction_r	hip_rotation_r	knee_angle_r	knee_angle_r_beta	ankle_angle_r	subtalar_angle_r	mtp_angle_r	hip_flexion_l	hip_adduction_l	hip_rotation_l	knee_angle_l	knee_angle_l_beta	ankle_angle_l	subtalar_angle_l	mtp_angle_l	L5_S1_Flex_Ext	L5_S1_Lat_Bending	L5_S1_axial_rotation	L4_L5_Flex_Ext	L4_L5_Lat_Bending	L4_L5_axial_rotation	L3_L4_Flex_Ext	L3_L4_Lat_Bending	L3_L4_axial_rotation	L2_L3_Flex_Ext	L2_L3_Lat_Bending	L2_L3_axial_rotation	L1_L2_Flex_Ext	L1_L2_Lat_Bending	L1_L2_axial_rotation	L1_T12_Flex_Ext	L1_T12_Lat_Bending	L1_T12_axial_rotation	Abs_r3	Abs_r2	Abs_r1	Abs_t1	Abs_t2	neck_flexion	neck_bending	neck_rotation	arm_flex_r	arm_add_r	arm_rot_r	elbow_flex_r	pro_sup_r	wrist_flex_r	wrist_dev_r	arm_flex_l	arm_add_l	arm_rot_l	elbow_flex_l	pro_sup_l	wrist_flex_l	wrist_dev_l
2.389831	3.439333	-7.267631	92.488298	0.090145	0.672240	0.797841	3.255991	3.176025	3.893110	9.365448	0.163458	26.996552	-7.339511	0.000000	2.810313	-2.745411	-8.071592	7.873799	0.137424	34.107583	10.967555	0.000000	-0.336691	-0.099424	0.504376	-0.625268	-0.132233	0.535900	-0.553149	-0.241738	0.535900	-0.384804	-0.241738	0.441329	-0.312651	-0.202744	0.409806	-0.192385	-0.154007	0.378282	-2.404947	-1.124699	2.805188	0.000000	0.000000	7.847336	-6.682122	0.749699	328.793111	-60.662758	354.240040	77.123289	90.547302	-3.308151	-7.435128	147.402745	-127.285289	142.499133	83.538908	88.739880	10.519988	16.648718
2.406780	3.454418	-7.452674	91.913493	0.090786	0.672073	0.797761	3.585081	3.166858	3.747137	9.547484	0.166635	27.293326	-6.415270	0.000000	2.769430	-2.708813	-7.836233	7.526284	0.131358	34.108999	10.375136	0.000000	-0.314229	-0.105315	0.582607	-0.583554	-0.140070	0.619020	-0.516246	-0.256064	0.619020	-0.359132	-0.256064	0.509782	-0.291793	-0.214759	0.473369	-0.179550	-0.163134	0.436956	-2.244504	-1.191349	3.240288	0.000000	0.000000	8.341469	-6.149881	0.604404	325.602661	-63.299841	352.682622	77.838932	90.092442	-2.973555	-7.953995	142.567646	-124.559480	140.420581	85.067980	88.767123	11.647952	15.964683
2.423729	3.488392	-7.674532	91.300618	0.091459	0.671984	0.797609	3.900431	3.186332	3.737810	9.626089	0.168007	27.517797	-5.607262	0.000000	2.728077	-2.686634	-7.592169	7.124363	0.124344	34.027466	9.696440	0.000000	-0.284660	-0.110922	0.651306	-0.528642	-0.147526	0.692013	-0.467668	-0.269695	0.692013	-0.325338	-0.269695	0.569893	-0.264335	-0.226191	0.529186	-0.162655	-0.171817	0.488480	-2.033297	-1.254767	3.622370	0.000000	0.000000	8.832578	-5.482147	0.456220	320.938007	-65.931036	348.622736	78.930533	89.715338	-2.475724	-7.967835	137.058184	-122.094114	137.053596	86.790640	88.633987	11.865870	14.598393
2.440678	3.528985	-7.914778	90.685514	0.092140	0.671981	0.797393	4.173867	3.224887	3.928031	9.595897	0.167480	27.617654	-5.050635	0.000000	2.675361	-2.667480	-7.326126	6.675728	0.116513	33.855214	8.927527	0.000000	-0.250604	-0.115417	0.694797	-0.465397	-0.153505	0.738221	-0.411718	-0.280626	0.738221	-0.286416	-0.280626	0.607947	-0.232711	-0.235359	0.564522	-0.143195	-0.178781	0.521097	-1.790041	-1.305623	3.864250	0.000000	0.000000	9.300067	-4.749480	0.448733	314.676829	-68.463290	342.010157	80.319918	89.583094	-1.916705	-7.546053	130.918177	-119.995277	132.429389	88.570083	88.303621	11.355225	12.608802
2.457627	3.568866	-8.161043	90.109943	0.092809	0.672057	0.797144	4.394974	3.275927	4.277583	9.466228	0.165217	27.567777	-4.771060	0.000000	2.620153	-2.648498	-7.039362	6.208968	0.108367	33.594014	8.100809	0.000000	-0.214153	-0.118599	0.707051	-0.397704	-0.157737	0.751241	-0.351833	-0.288362	0.751241	-0.244756	-0.288362	0.618669	-0.198863	-0.241848	0.574479	-0.122367	-0.183710	0.530288	-1.529677	-1.341619	3.932404	0.000000	0.000000	9.755469	-4.002364	0.620850	307.093966	-70.826967	333.231580	81.881897	89.532383	-1.394241	-6.858098	124.086873	-118.339986	126.529110	90.252495	87.798701	10.412658	10.110797
2.474576	3.576549	-8.410297	89.600910	0.093516	0.672171	0.796869	4.564546	3.310252	4.775561	9.253514	0.161504	27.373483	-4.785569	0.000000	2.571120	-2.604353	-6.772905	5.741438	0.100207	33.250988	7.309513	0.000000	-0.175936	-0.125104	0.686534	-0.326731	-0.166388	0.729442	-0.289045	-0.304178	0.729442	-0.201077	-0.304178	0.600717	-0.163374	-0.255112	0.557809	-0.100530	-0.193786	0.514900	-1.256694	-1.415201	3.818296	0.000000	0.000000	10.224679	-3.238465	0.934428	298.442816	-72.943890	322.683307	83.472381	89.525236	-0.936739	-6.021785	116.480178	-117.222639	119.395772	91.701092	87.062740	9.344568	7.355399
2.491525	3.541648	-8.657582	89.178368	0.094285	0.672285	0.796601	4.687578	3.319671	5.411591	8.977439	0.156686	27.043958	-5.107285	0.000000	2.534892	-2.527227	-6.457821	5.286093	0.092260	32.818432	6.486584	0.000000	-0.137236	-0.136897	0.638663	-0.254861	-0.182073	0.678579	-0.225465	-0.332852	0.678579	-0.156847	-0.332852	0.558830	-0.127437	-0.279161	0.518913	-0.078417	-0.212054	0.478997	-0.980262	-1.548608	3.552050	0.000000	0.000000	10.719308	-2.483313	1.328812	288.879794	-74.699338	310.706987	84.938548	89.457858	-0.530536	-5.192191	108.116148	-116.706241	111.168573	92.721368	86.135239	8.495940	4.572917
2.508475	3.465171	-8.898040	88.859879	0.095094	0.672363	0.796366	4.771540	3.302039	6.134686	8.659809	0.151142	26.625723	-5.673249	0.000000	2.517803	-2.418489	-6.060792	4.858252	0.084792	32.310013	5.603974	0.000000	-0.099681	-0.154189	0.572655	-0.185117	-0.205071	0.608446	-0.163766	-0.374895	0.608446	-0.113925	-0.374895	0.501073	-0.092564	-0.314422	0.465282	-0.056958	-0.238839	0.429492	-0.712011	-1.744217	3.184937	0.000000	0.000000	11.239058	-1.765553	1.732627	278.625631	-75.974109	297.717280	86.150993	88.988448	-0.099867	-4.407929	99.085136	-116.712241	101.908345	93.152624	85.100615	8.256675	2.118735
2.525424	3.345648	-9.118878	88.641248	0.095936	0.672394	0.796197	4.811855	3.252887	6.931611	8.310253	0.145041	26.152876	-6.449114	0.000000	2.508649	-2.277599	-5.618123	4.459073	0.077826	31.744986	4.703925	0.000000	-0.065773	-0.178028	0.496036	-0.122147	-0.236778	0.527038	-0.108058	-0.432858	0.527038	-0.075172	-0.432858	0.434032	-0.061077	-0.363035	0.403029	-0.037583	-0.275766	0.372027	-0.469810	-2.013891	2.758804	0.000000	0.000000	11.764714	-1.061353	2.058017	267.800881	-76.786759	283.949826	87.011089	87.748675	0.369683	-3.351417	89.503440	-117.051504	91.538241	92.965146	84.178528	8.979387	0.399243
